<svg width="29" height="31" viewBox="0 0 29 31" fill="none" xmlns="http://www.w3.org/2000/svg">
<path d="M25.375 12.9166C25.375 21.9583 14.5 29.7083 14.5 29.7083C14.5 29.7083 3.625 21.9583 3.625 12.9166C3.625 9.83348 4.77076 6.87662 6.81021 4.69651C8.84967 2.5164 11.6158 1.29163 14.5 1.29163C17.3842 1.29163 20.1503 2.5164 22.1898 4.69651C24.2292 6.87662 25.375 9.83348 25.375 12.9166Z" fill="#3351B9" stroke="#3351B9" stroke-width="2" stroke-linecap="round" stroke-linejoin="round"/>
<path d="M8.224 10.768V11.312H13.192V10.768H8.224ZM7.4 13.16V13.72H13.952V13.16H7.4ZM10.328 11V13.384H10.992V11H10.328ZM8.224 7.968V11.008H8.888V8.512H13.12V7.968H8.224ZM16.5594 8.656V8.96C16.5594 9.936 15.8394 10.8 14.7674 11.136L15.0874 11.656C16.2954 11.248 17.1034 10.224 17.1034 8.96V8.656H16.5594ZM16.6794 8.656V8.96C16.6794 10.144 17.4634 11.136 18.6634 11.52L18.9834 11C17.9274 10.68 17.2234 9.856 17.2234 8.96V8.656H16.6794ZM14.9594 8.28V8.816H18.8154V8.28H14.9594ZM16.5594 7.36V8.544H17.2234V7.36H16.5594ZM19.7034 7.392V11.8H20.3674V7.392H19.7034ZM20.1834 9.32V9.872H21.4394V9.32H20.1834ZM15.6714 12.184V12.728H19.7034V14.632H20.3674V12.184H15.6714Z" fill="white"/>
</svg>
