<svg width="29" height="31" viewBox="0 0 29 31" fill="none" xmlns="http://www.w3.org/2000/svg">
<path d="M25.375 12.9166C25.375 21.9583 14.5 29.7083 14.5 29.7083C14.5 29.7083 3.625 21.9583 3.625 12.9166C3.625 9.83348 4.77076 6.87662 6.81021 4.69651C8.84967 2.5164 11.6158 1.29163 14.5 1.29163C17.3842 1.29163 20.1503 2.5164 22.1898 4.69651C24.2292 6.87662 25.375 9.83348 25.375 12.9166Z" fill="white" stroke="#3351B9" stroke-linecap="round" stroke-linejoin="round"/>
<path d="M10.328 11.992V13.088H10.992V11.992H10.328ZM7.4 11.6V12.112H13.928V11.6H7.4ZM10.336 8.344V9.224H10.992V8.344H10.336ZM10.304 9.288V9.4C10.304 10.176 9.168 10.68 7.744 10.768L7.936 11.28C9.536 11.144 10.888 10.536 10.888 9.4V9.288H10.304ZM10.44 9.288V9.4C10.44 10.536 11.784 11.144 13.384 11.28L13.576 10.768C12.16 10.68 11.024 10.176 11.024 9.4V9.288H10.44ZM8.064 9.024V9.528H13.264V9.024H8.064ZM8.184 12.768V13.272H12.44V13.888H8.2V15.232H8.856V14.36H13.096V12.768H8.184ZM8.2 15.04V15.544H13.312V15.04H8.2ZM15.0554 8.688V11.848H18.3994V8.688H17.7514V9.728H15.7114V8.688H15.0554ZM15.7114 10.248H17.7514V11.312H15.7114V10.248ZM19.7034 8.392V12.12H20.3674V8.392H19.7034ZM20.0794 9.944V10.496H21.4314V9.944H20.0794ZM15.7754 12.472V13H19.7194V13.728H15.7914V15.312H16.4474V14.224H20.3674V12.472H15.7754ZM15.7914 15.016V15.544H20.6314V15.016H15.7914Z" fill="#3351B9"/>
</svg>
